<?xml version="1.0" standalone="no"?>
<!DOCTYPE svg PUBLIC "-//W3C//DTD SVG 20010904//EN"
 "http://www.w3.org/TR/2001/REC-SVG-20010904/DTD/svg10.dtd">
<svg version="1.0" xmlns="http://www.w3.org/2000/svg"
 width="64.000000pt" height="64.000000pt" viewBox="0 0 64.000000 64.000000"
 preserveAspectRatio="xMidYMid meet">

<g transform="translate(0.000000,64.000000) scale(0.100000,-0.100000)"
fill="#000000" stroke="none">
<path d="M202 609 c-71 -28 -144 -101 -171 -174 -78 -208 69 -425 289 -425
173 0 310 137 310 310 0 220 -220 369 -428 289z m136 -117 l3 -72 84 0 85 0 0
-140 c0 -128 -2 -142 -21 -161 -24 -24 -72 -23 -77 3 -2 12 5 17 25 20 l28 3
3 123 3 122 -150 0 -150 0 -3 -142 c-3 -119 -5 -143 -18 -143 -13 0 -15 25
-18 158 l-3 157 86 0 85 0 0 68 c0 38 3 72 7 76 18 17 28 -7 31 -72z m-123 8
c30 -31 36 -43 27 -52 -9 -9 -22 -2 -57 32 -42 41 -49 60 -21 60 6 0 30 -18
51 -40z m275 27 c0 -7 -18 -31 -40 -52 -31 -30 -43 -36 -52 -27 -9 9 -3 21 27
52 39 40 65 51 65 27z m-80 -277 l0 -80 -89 0 c-72 0 -90 3 -95 16 -8 21 -8
129 1 137 3 4 46 7 95 7 l88 0 0 -80z"/>
<path d="M260 250 l0 -40 60 0 60 0 0 40 0 40 -60 0 -60 0 0 -40z"/>
</g>
</svg>
