<svg width="214" height="56" xmlns="http://www.w3.org/2000/svg" xmlns:xlink="http://www.w3.org/1999/xlink"><defs><path id="a" d="M.035.2v30.622h41.028V.201H.035z"/><path id="c" d="M.035.22v11.774h208.66V.22H.036z"/><path id="e" d="M.572 15.132h11.332V.383H.572v14.749z"/><path id="g" d="M.234 11.632H16.96V.006H.234v11.626z"/><path id="i" d="M.286 11.632h16.022V.006H.286z"/></defs><g fill="none" fill-rule="evenodd"><mask id="b" fill="#fff"><use xlink:href="#a"/></mask><path d="M41.063.2H5.1C2.284.2 0 2.49 0 5.317v20.39c0 2.826 2.284 5.116 5.1 5.116h30.862c2.817 0 5.101-2.29 5.101-5.116V.201zM39.9 1.368v24.34a3.948 3.948 0 01-3.938 3.95H5.1a3.948 3.948 0 01-3.937-3.95V5.316A3.948 3.948 0 015.1 1.367h34.8z" fill="#FFF" mask="url(#b)"/><path d="M35.975 21.891c0-8.552-6.915-15.485-15.447-15.485-8.527 0-15.44 6.933-15.44 15.485h30.887M197.2 24.772c-2.593 0-3.492-2.441-3.492-5.148s.899-5.148 3.491-5.148c2.593 0 3.492 2.441 3.492 5.148s-.9 5.148-3.492 5.148zm0-16.983c-7.354 0-12.539 4.564-12.539 11.835 0 7.27 5.185 11.835 12.538 11.835 7.354 0 12.539-4.564 12.539-11.835 0-7.27-5.185-11.835-12.539-11.835zm-44.229 16.983c-2.592 0-3.492-2.441-3.492-5.148s.9-5.148 3.492-5.148 3.491 2.441 3.491 5.148-.9 5.148-3.491 5.148zm0-16.983c-7.354 0-12.539 4.564-12.539 11.835 0 7.27 5.185 11.835 12.539 11.835 7.353 0 12.538-4.564 12.538-11.835 0-7.27-5.185-11.835-12.538-11.835zm13.332 6.899V8.426h2.857V1.74H179v6.687h4.338v6.262h-4.285v7.324c0 1.804.688 2.494 2.275 2.494a15.4 15.4 0 001.746-.106l.052 6.634c-1.11.212-3.756.425-5.396.425-5.872 0-8.57-2.017-8.57-8.28v-8.49h-2.857m-29.944 16.132h-9.84V14.688h-3.175V8.426h3.174v-.212c0-5.731 3.016-8.173 9.153-8.173 2.116 0 3.703.213 4.708.319v5.943c-.899-.053-1.27-.053-1.904-.053-1.481 0-2.222.372-2.222 2.176h3.491v6.262h-3.385v16.134m-26.136-6.05c-2.591 0-3.491-2.441-3.491-5.148s.9-5.148 3.491-5.148c2.593 0 3.492 2.441 3.492 5.148s-.9 5.148-3.492 5.148zm0-16.983c-7.353 0-12.538 4.564-12.538 11.835 0 7.27 5.185 11.835 12.538 11.835 7.354 0 12.54-4.564 12.54-11.835 0-7.27-5.186-11.835-12.54-11.835zm-22.061 3.769c2.17-3.132 5.132-3.769 8.57-3.556v7.96c-.264 0-.951-.053-1.322-.053-4.814 0-6.295 2.176-6.295 5.731v9.182h-9.84V8.426h8.887v3.132M64.038 14.37h-4.444V7.79h4.444c1.799 0 3.439.902 3.439 3.237 0 2.494-1.64 3.343-3.44 3.343zM65.678.2H48.695v30.622h10.899v-8.863h5.767c7.036.053 12.486-3.184 12.486-10.88 0-7.695-5.132-10.878-12.169-10.878z" fill="#FFF"/><g transform="translate(0 40.833)"><mask id="d" fill="#fff"><use xlink:href="#c"/></mask><path d="M205.16 3.736h.846l.91 2.901h.012l.909-2.901h.859v3.623h-.543V4.445h-.025s-.19.646-.354 1.153l-.569 1.76h-.568l-.568-1.76a34.234 34.234 0 01-.341-1.153h-.025v2.914h-.543V3.736zm-2.35.507h-1.162v-.507h2.905v.507h-1.162v3.116h-.58V4.243zM8.787 1.462H5.119v10.532H3.685V1.462H0V.22h8.787v1.242" fill="#FFF" mask="url(#d)"/></g><path d="M17.421 47.562v5.265h-1.337V47.71c0-1.505-.554-2.257-1.89-2.257-1.288 0-2.446.981-2.446 2.698v4.677H10.41V40.4h1.337v5.413c.358-.654 1.287-1.472 2.788-1.472 2.037 0 2.885 1.243 2.885 3.221m8.317.458c0-1.129-.684-2.633-2.477-2.633-1.794 0-2.528 1.357-2.642 2.633h5.119zm1.288.589c0 .114 0 .245-.016.392h-6.391c.098 1.93 1.01 2.992 2.609 2.992 1.564 0 2.135-.964 2.396-1.635h1.337c-.457 1.423-1.614 2.699-3.717 2.699-2.592 0-3.929-1.914-3.929-4.367 0-2.91 1.76-4.35 3.961-4.35 2.397 0 3.783 1.717 3.75 4.269zm6.235 4.219h1.337V40.399H33.26z" fill="#FFF"/><g transform="translate(36.054 40.833)"><mask id="f" fill="#fff"><use xlink:href="#e"/></mask><path d="M.833 11.994H2.17V3.736H.833v8.258zM.573 1.283c0-.557.423-.9.928-.9.522 0 .93.343.93.9 0 .556-.408.9-.93.9-.505 0-.929-.344-.929-.9zm9.995 6.394c0-1.946-1.044-3.042-2.641-3.042-1.598 0-2.56 1.162-2.56 3.042 0 1.897.962 3.058 2.56 3.058 1.597 0 2.641-1.112 2.641-3.058zm1.336-3.941v7.8c0 2.11-1.01 3.63-3.929 3.63-2.885 0-3.651-1.847-3.814-2.845h1.386c.179.818.798 1.767 2.412 1.767 1.826 0 2.592-.802 2.592-2.42v-1.276c-.587.932-1.532 1.471-2.87 1.471-2.037 0-3.634-1.553-3.634-4.186s1.597-4.17 3.635-4.17c1.337 0 2.282.54 2.87 1.472V3.736h1.352z" fill="#FFF" mask="url(#f)"/></g><path d="M57.259 47.562v5.265h-1.338V47.71c0-1.505-.554-2.257-1.89-2.257-1.288 0-2.445.981-2.445 2.698v4.677h-1.337V40.4h1.337v5.413c.358-.654 1.287-1.472 2.787-1.472 2.038 0 2.886 1.243 2.886 3.221m3.871-1.947v5.12c0 .817.164 1.063.815 1.063.343 0 .735-.066.881-.115l.016 1.095c-.162.05-.62.18-1.19.18-1.223 0-1.858-.523-1.858-2.027v-5.316H58.7V44.57h1.093v-2.355h1.337v2.355h1.776v1.046H61.13m7.521 4.628h1.353c.212 1.16.961 1.766 2.315 1.766 1.239 0 1.973-.573 1.973-1.472 0-.997-.816-1.112-2.332-1.357-1.777-.278-2.885-.785-2.885-2.388 0-1.684 1.435-2.453 3.065-2.453 1.695 0 3.081.72 3.342 2.437h-1.32c-.164-.77-.669-1.39-2.006-1.39-1.076 0-1.81.474-1.81 1.292 0 .915.652 1.112 2.005 1.357 1.777.294 3.261.605 3.261 2.387 0 1.669-1.271 2.633-3.342 2.633-2.38 0-3.456-1.324-3.619-2.812m15.856-2.682v5.265h-1.338V47.71c0-1.505-.554-2.257-1.89-2.257-1.288 0-2.446.981-2.446 2.698v4.677h-1.337V40.4h1.337v5.413c.359-.654 1.288-1.472 2.788-1.472 2.038 0 2.886 1.243 2.886 3.221m7.432 1.929v-.735l-1.989.196c-1.484.147-2.315.344-2.315 1.57 0 1.128.815 1.488 1.826 1.488 1.533 0 2.478-.752 2.478-2.519zm1.564 3.336h-1.368c-.114-.278-.18-.54-.18-1.226-.244.589-.995 1.456-2.755 1.456-1.728 0-2.869-.835-2.869-2.52 0-1.913 1.401-2.37 3.325-2.567l2.283-.245v-.392c0-1.177-.522-1.946-1.892-1.946-1.174 0-1.94.523-2.086 1.668h-1.304c.13-1.456 1.125-2.715 3.423-2.715 2.152 0 3.18 1.112 3.18 3.254v3.5c0 .589.097 1.308.243 1.733zm8.631-4.137c0-1.913-.88-3.221-2.56-3.221-1.678 0-2.64 1.243-2.64 3.221 0 1.995.962 3.238 2.64 3.238 1.68 0 2.56-1.308 2.56-3.238zm1.321 0c0 2.65-1.517 4.367-3.636 4.367-1.32 0-2.266-.59-2.853-1.57v4.284h-1.37V44.569h1.37v1.341c.587-.982 1.533-1.57 2.853-1.57 2.12 0 3.636 1.717 3.636 4.35zm1.896 4.137h1.337V44.57h-1.337v8.258zm-.26-10.71c0-.557.424-.9.929-.9.521 0 .929.343.929.9 0 .555-.408.899-.93.899-.504 0-.929-.344-.929-.9z" fill="#FFF"/><g transform="translate(108.745 44.333)"><mask id="h" fill="#fff"><use xlink:href="#g"/></mask><path d="M7.245 3.228v5.266H5.908V3.376c0-1.505-.555-2.258-1.891-2.258-1.288 0-2.446.982-2.446 2.699v4.677H.234V.236h1.337v1.243C1.93.824 2.86.006 4.36.006c2.038 0 2.886 1.244 2.886 3.222m8.377.949c0-1.946-1.044-3.042-2.642-3.042-1.597 0-2.56 1.162-2.56 3.042 0 1.897.963 3.058 2.56 3.058 1.598 0 2.642-1.112 2.642-3.058zM16.959.236v7.8c0 2.11-1.01 3.63-3.929 3.63-2.885 0-3.652-1.847-3.815-2.845h1.386c.18.818.799 1.767 2.413 1.767 1.826 0 2.592-.802 2.592-2.42V6.891c-.587.932-1.533 1.471-2.87 1.471-2.037 0-3.635-1.553-3.635-4.186S10.7.007 12.736.007c1.337 0 2.283.54 2.87 1.472V.236h1.353z" fill="#FFF" mask="url(#h)"/></g><path d="M131.97 48.69c0-2.764 1.664-4.35 4.044-4.35 1.875 0 3.342 1.047 3.701 2.976h-1.354c-.26-1.243-1.27-1.897-2.347-1.897-1.695 0-2.756 1.178-2.756 3.271 0 2.11 1.06 3.287 2.756 3.287 1.108 0 2.054-.67 2.38-1.897h1.37c-.44 1.897-1.925 2.977-3.75 2.977-2.396 0-4.043-1.75-4.043-4.367m15.95 0c0-1.946-1.076-3.27-2.706-3.27s-2.739 1.324-2.739 3.27c0 1.963 1.109 3.27 2.739 3.27s2.706-1.307 2.706-3.27zm-6.75 0c0-2.617 1.729-4.35 4.044-4.35 2.299 0 4.01 1.733 4.01 4.35 0 2.633-1.711 4.367-4.01 4.367-2.315 0-4.044-1.734-4.044-4.367zm22.042-1.226v5.363h-1.336v-5.445c0-1.521-.88-1.946-1.843-1.946-1.303 0-2.2.965-2.2 2.632v4.76h-1.337v-5.446c0-1.521-.864-1.946-1.826-1.946-1.305 0-2.2.965-2.2 2.632v4.76h-1.337v-8.259h1.336v1.226c.31-.621 1.093-1.455 2.56-1.455 1.516 0 2.282.638 2.608 1.62.359-.753 1.093-1.62 2.772-1.62 2.2 0 2.803 1.358 2.803 3.123m8.807 1.227c0-1.913-.882-3.221-2.561-3.221-1.678 0-2.64 1.243-2.64 3.221 0 1.995.962 3.238 2.64 3.238 1.68 0 2.56-1.308 2.56-3.238zm1.32 0c0 2.65-1.517 4.367-3.635 4.367-1.321 0-2.266-.59-2.854-1.57v4.284h-1.37V44.569h1.37v1.341c.588-.982 1.533-1.57 2.854-1.57 2.118 0 3.634 1.717 3.634 4.35zm7.048.801v-.735l-1.99.196c-1.482.147-2.315.344-2.315 1.57 0 1.128.815 1.488 1.827 1.488 1.532 0 2.478-.752 2.478-2.519zm1.565 3.336h-1.37c-.114-.278-.179-.54-.179-1.226-.244.589-.994 1.456-2.756 1.456-1.727 0-2.868-.835-2.868-2.52 0-1.913 1.401-2.37 3.325-2.567l2.283-.245v-.392c0-1.177-.522-1.946-1.892-1.946-1.173 0-1.94.523-2.086 1.668h-1.305c.131-1.456 1.126-2.715 3.423-2.715 2.154 0 3.18 1.112 3.18 3.254v3.5c0 .589.098 1.308.245 1.733z" fill="#FFF"/><g transform="translate(183.76 44.333)"><mask id="j" fill="#fff"><use xlink:href="#i"/></mask><path d="M7.296 3.228v5.266H5.959V3.376c0-1.505-.554-2.258-1.891-2.258-1.288 0-2.446.982-2.446 2.699v4.677H.286V.236h1.336v1.243C1.981.824 2.91.006 4.41.006c2.038 0 2.886 1.244 2.886 3.222M16.308.236l-3.521 9.583c-.505 1.373-1.272 1.848-2.478 1.848-.635 0-.814-.05-1.092-.115v-1.144c.244.048.586.065.847.065.946 0 1.32-.638 1.565-1.684L8.384.236h1.484l2.495 7.179 2.51-7.18h1.435" fill="#FFF" mask="url(#j)"/></g><path d="M209.668 6.856h.772c.411 0 .641-.181.641-.56 0-.397-.23-.578-.641-.578h-.772v1.138zm1.282.445l.74 1.435h-.624l-.691-1.369h-.707v1.369h-.576v-3.53h1.415c.69 0 1.15.446 1.15 1.09 0 .494-.262.873-.707 1.005zm1.958-.33c0-1.748-1.251-2.721-2.63-2.721-1.399 0-2.65.973-2.65 2.721 0 1.765 1.251 2.722 2.65 2.722 1.379 0 2.63-.973 2.63-2.722zm.657 0a3.275 3.275 0 01-3.288 3.316c-1.826 0-3.306-1.419-3.306-3.316 0-1.913 1.48-3.315 3.306-3.315 1.791 0 3.288 1.402 3.288 3.315z" fill="#FFF"/></g></svg>